<svg width="59" height="59" viewBox="0 0 59 59" fill="none" xmlns="http://www.w3.org/2000/svg">
<g id="icon/navigation/close_24px">
<path id="icon/navigation/close_24px_2" d="M44.9875 14.0371C44.5282 13.5767 43.9046 13.318 43.2544 13.318C42.6041 13.318 41.9805 13.5767 41.5212 14.0371L29.5 26.0337L17.4787 14.0125C17.0194 13.5522 16.3959 13.2935 15.7456 13.2935C15.0953 13.2935 14.4718 13.5522 14.0125 14.0125C13.0537 14.9712 13.0537 16.52 14.0125 17.4787L26.0337 29.5L14.0125 41.5212C13.0537 42.48 13.0537 44.0287 14.0125 44.9875C14.9712 45.9462 16.52 45.9462 17.4787 44.9875L29.5 32.9662L41.5212 44.9875C42.48 45.9462 44.0287 45.9462 44.9875 44.9875C45.9462 44.0287 45.9462 42.48 44.9875 41.5212L32.9662 29.5L44.9875 17.4787C45.9217 16.5446 45.9217 14.9712 44.9875 14.0371Z" fill="#FF0000"/>
</g>
</svg>
