<svg width="60" height="60" viewBox="0 0 60 60" fill="none" xmlns="http://www.w3.org/2000/svg">
<path d="M18.0641 37.2359C16.4148 35.8864 15.4812 34.3192 14.9498 32.9483C13.5776 29.2769 14.3007 24.6764 16.767 21.7656V21.7655C17.171 21.2878 17.5096 20.4713 17.2109 19.61C16.9567 18.8306 16.8445 17.814 16.8402 16.8669C16.8363 15.9895 16.9249 15.1915 17.0685 14.71C17.9268 14.8541 18.8018 15.2275 19.6576 15.6852C20.2964 16.0268 20.9165 16.4108 21.5081 16.7772C21.7473 16.9252 21.9819 17.0705 22.2111 17.2089L22.212 17.2095L22.213 17.21C22.5928 17.4316 22.8887 17.5165 23.1393 17.5486C23.263 17.5644 23.373 17.5669 23.4707 17.5679C23.4842 17.5681 23.4974 17.5682 23.5103 17.5683C23.5926 17.5691 23.6624 17.5697 23.7308 17.5765L23.7529 17.5787L23.7747 17.5742C24.016 17.5239 24.2814 17.4607 24.5732 17.3911C25.8315 17.0912 27.5834 16.6736 30.0349 16.6736C31.8972 16.6736 33.8647 16.9494 35.7983 17.5019L35.8195 17.5081L35.8415 17.5075C35.907 17.506 35.9839 17.5178 36.0921 17.5344L36.12 17.5385C36.2377 17.5565 36.3791 17.5764 36.5422 17.5777C36.8729 17.5801 37.2805 17.5057 37.7875 17.21L37.7887 17.2093L37.7898 17.2085C38.0124 17.0729 38.2374 16.933 38.4644 16.7918C39.085 16.4058 39.7216 16.0098 40.3721 15.6629C41.2197 15.2108 42.0778 14.8495 42.9313 14.7095C43.075 15.191 43.1637 15.9893 43.1598 16.8669C43.1556 17.814 43.0435 18.8306 42.7896 19.61C42.4903 20.4712 42.829 21.2878 43.2335 21.7655L43.344 21.672L43.2335 21.7655C45.6993 24.6768 46.4224 29.2769 45.0502 32.9483C44.5188 34.3191 43.5853 35.8864 41.9359 37.2359C40.2866 38.5853 37.9143 39.723 34.4964 40.2235L34.495 40.2237L31.8197 40.6408L31.5965 40.6757L31.7212 40.8639C32.072 41.393 32.3558 41.823 32.5887 42.1759C33.4375 43.4617 33.611 43.7247 33.8838 44.0366L33.8853 44.0388C34.2319 44.5069 34.5226 44.8999 34.7307 45.4121C34.9391 45.9248 35.0676 46.5654 35.0676 47.5252V55.5383C33.4439 55.8679 31.7223 56.0328 30 56.0328C28.2777 56.0328 26.5561 55.8679 24.9324 55.5383V47.5252C24.9324 46.5654 25.0609 45.9248 25.2693 45.4121C25.4775 44.8997 25.7687 44.5066 26.1156 44.0381L26.1167 44.0366C26.3947 43.7182 26.5932 43.4173 27.3942 42.2027C27.6306 41.8441 27.9196 41.4058 28.2788 40.8639L28.4035 40.6757L28.1803 40.6408L25.505 40.2237L25.5036 40.2235C22.0857 39.723 19.7134 38.5853 18.0641 37.2359ZM45.8242 12.1007L45.8238 12.1001C45.2419 11.3003 44.4346 10.8591 43.4132 10.8591H43.413H43.4128H43.4127H43.4124H43.4122H43.412H43.4119H43.4116H43.4114H43.4113H43.411H43.4108H43.4106H43.4105H43.4102H43.41H43.4099H43.4097H43.4095H43.4093H43.4091H43.409H43.4087H43.4085H43.4084H43.4081H43.408H43.4078H43.4077H43.4075H43.4072H43.4071H43.4069H43.4068H43.4065H43.4064H43.4062H43.4061H43.4058H43.4057H43.4055H43.4054H43.4051H43.405H43.4048H43.4047H43.4044H43.4043H43.4041H43.404H43.4039H43.4036H43.4035H43.4033H43.4032H43.4029H43.4028H43.4027H43.4025H43.4024H43.4022H43.402H43.4019H43.4018H43.4016H43.4014H43.4012H43.4011H43.401H43.4009H43.4006H43.4005H43.4004H43.4002H43.4H43.3999H43.3997H43.3996H43.3995H43.3993H43.3991H43.399H43.3989H43.3988H43.3985H43.3984H43.3983H43.3982H43.3981H43.3978H43.3977H43.3976H43.3975H43.3974H43.3973H43.397H43.3969H43.3968H43.3967H43.3966H43.3965H43.3962H43.3961H43.396H43.3959H43.3958H43.3956H43.3955H43.3954H43.3953H43.3952H43.3949H43.3948H43.3947H43.3946H43.3945H43.3944H43.3942H43.3941H43.394H43.3939H43.3938H43.3937H43.3936H43.3934H43.3933H43.3932H43.3931H43.393H43.3929H43.3927H43.3926H43.3925H43.3924H43.3923H43.3922H43.3921H43.3919H43.3918H43.3917H43.3916H43.3915H43.3914H43.3912H43.3911H43.391H43.3909H43.3908H43.3907H43.3905H43.3904H43.3903H43.3902H43.3901H43.39H43.3898H43.3897H43.3896H43.3895H43.3894H43.3893H43.3892H43.389H43.3889H43.3888H43.3887H43.3886H43.3885H43.3883H43.3882H43.3881H43.388H43.3879H43.3878H43.3876H43.3875H43.3874H43.3873H43.3872H43.3871H43.387H43.3868H43.3867H43.3866H43.3865H43.3864H43.3863H43.3861H43.386H43.3859H43.3858H43.3857H43.3856H43.3854H43.3853H43.3852H43.3851H43.385H43.3849H43.3848H43.3846H43.3845H43.3844H43.3843H43.3842H43.3841H43.3839H43.3838H43.3837H43.3836H43.3835H43.3834H43.3832H43.3831H43.383H43.3829H43.3828H43.3827H43.3826H43.3824H43.3823H43.3822H43.3821H43.382H43.3819H43.3817H43.3816H43.3815H43.3814H43.3813H43.3812H43.381H43.3809H43.3808H43.3807H43.3806H43.3805H43.3803H43.3802H43.3801H43.38H43.3799H43.3798H43.3797H43.3795H43.3794H43.3793H43.3792H43.3791H43.379H43.3788H43.3787H43.3786H43.3785H43.3784H43.3744L43.3705 10.8593C40.7524 11.0008 38.6691 12.2695 36.5102 13.5842C36.4293 13.6334 36.3483 13.6828 36.2672 13.7321C34.1895 13.1833 32.0774 12.9091 29.9651 12.9091C27.8201 12.9091 25.6751 13.2173 23.7674 13.7319C23.733 13.7112 23.6987 13.6904 23.6644 13.6698C21.3393 12.2669 19.2401 11.0003 16.4902 10.8593L16.4865 10.8591H16.4827C15.5624 10.8591 14.7562 11.3029 14.1762 12.1001L14.1758 12.1007C13.5262 13.0031 13.2114 14.4006 13.1196 15.8465C13.0293 17.2707 13.1541 18.7664 13.4081 19.9349C10.4564 23.8657 9.66622 29.5519 11.4475 34.2669C13.1157 38.7502 16.8452 41.8857 22.0704 43.3418C21.6814 44.072 21.3776 44.99 21.2451 46.1881C20.2294 46.5276 19.3644 46.6256 18.5676 46.3913C17.7037 46.1359 17.0227 45.5596 16.4217 44.5486H16.4216C15.0281 42.2076 12.6334 40.2601 9.87709 40.5135L9.73345 40.5268L9.74613 40.6705L10.0515 44.1317L10.0643 44.2765L10.209 44.2632C10.7736 44.2115 11.3544 44.4841 11.8848 44.922C12.4126 45.3579 12.8708 45.942 13.1846 46.4715L13.1847 46.4716C14.2575 48.2783 15.7091 49.4721 17.5014 50.0014L17.5015 50.0015C18.7692 50.375 19.9334 50.3826 21.168 50.1409V54.4437C11.2103 50.8639 3.96718 41.3077 3.96718 30.1158C3.96718 15.809 15.6948 3.96718 30 3.96718C44.3053 3.96718 56.0328 15.809 56.0328 30.1158C56.0328 41.3077 48.7896 50.8639 38.8321 54.4437V47.5252C38.8321 45.6293 38.4537 44.3223 37.9297 43.3418C43.1551 41.8856 46.8846 38.7499 48.5527 34.2665C50.3336 29.5175 49.5437 23.8655 46.5919 19.9349C46.8461 18.7666 46.971 17.2707 46.8807 15.8465C46.789 14.4006 46.4741 13.0031 45.8242 12.1007ZM30 0.202698C13.6221 0.202698 0.202705 13.7394 0.202705 30.1158C0.202705 46.3985 13.5012 59.7973 30 59.7973C46.4783 59.7973 59.7973 46.4186 59.7973 30.1158C59.7973 13.7394 46.3779 0.202698 30 0.202698Z" fill="#282828" stroke="#282828" stroke-width="0.366795"/>
</svg>
